<?xml version="1.0" encoding="UTF-8"?>
<svg id="Layer_2" xmlns="http://www.w3.org/2000/svg" xmlns:xlink="http://www.w3.org/1999/xlink" viewBox="0 0 1080 1080">
  <defs>
    <style>
      .cls-1 {
        fill: url(#linear-gradient-2);
      }

      .cls-2 {
        fill: none;
      }

      .cls-3 {
        fill: url(#linear-gradient-3);
      }

      .cls-4 {
        fill: #404041;
      }

      .cls-5 {
        fill: url(#linear-gradient);
      }

      .cls-6 {
        clip-path: url(#clippath);
      }
    </style>
    <clipPath id="clippath">
      <rect class="cls-2" width="1080" height="1080"/>
    </clipPath>
    <linearGradient id="linear-gradient" x1="-88.39" y1="669.98" x2="322.39" y2="415.26" gradientUnits="userSpaceOnUse">
      <stop offset="0" stop-color="#09644a"/>
      <stop offset=".5" stop-color="#2affd2"/>
      <stop offset="1" stop-color="#0a7e60"/>
    </linearGradient>
    <linearGradient id="linear-gradient-2" x1="-62.42" y1="711.87" x2="348.37" y2="457.16" xlink:href="#linear-gradient"/>
    <linearGradient id="linear-gradient-3" x1="-38.58" y1="750.31" x2="372.2" y2="495.6" xlink:href="#linear-gradient"/>
  </defs>
  <g id="Layer_1-2" data-name="Layer_1">
    <g class="cls-6">
      <g>
        <g>
          <path class="cls-5" d="M158.65,450.28l31.13,19.8c.36.23.78.32,1.2.28l36.65-4.21-9.21,35.72c-.11.41-.07.84.11,1.23l15.33,33.56-36.82,2.28c-.42.03-.82.2-1.14.48l-27.18,24.95-13.55-34.31c-.16-.39-.44-.72-.81-.93l-32.13-18.14,28.45-23.49c.33-.27.55-.64.63-1.06l7.32-36.16Z"/>
          <g>
            <path class="cls-1" d="M361.37,604.7c-2.67,3.2-6.26,5.3-9.59,7.71-14.47,10.43-29,20.78-43.48,31.23-5.25,3.8-6.19,8.38-3.16,14.26,3.44,6.67,8.61,11.93,14.09,16.9,4.71,4.29,9.81,8.1,14.99,11.8,2.4,1.71,2.43,1.76.24,3.61-6.62,5.58-6.6,5.45-15.17,4.14-18.89-2.89-37.45-7.33-55.91-12.2-.8-.21-1.96-.14-2.19-1.06-.27-1.13.97-1.43,1.69-1.93,7.03-5.03,13.59-10.58,19.06-17.33.37-.45.92-.84.82-1.85-1.5,1.01-3.81,2.55-6.67,4.35-17.42,10.98-47.7,30.05-89.52,35.42-.05,0-.09,0-.14.02h0c-29.42,3.75-52.4-.83-60.11-2.57-6.01-1.35-11.5-2.93-16.37-4.56-20.97-7.23-40.31-18.68-56.73-33.63-22.32-20.29-39.27-47.02-47.64-78.32-23.23-86.88,28.37-176.13,115.25-199.36,3.63-.97,7.27-1.81,10.91-2.52-77.21,26.47-121.82,108.61-100.42,188.66,6.07,22.72,16.84,42.94,30.98,59.88,35.38,42.4,94.34,56.86,145.59,36.31.15-.06.31-.12.46-.18-3.5-1.5-6.66-2.87-9.84-4.21-15.48-6.47-30.53-13.82-45.44-21.5-1.57-.81-1.88-1.4-.08-2.38,1.97-1.08,3.97-2.22,5.64-3.67,2.29-1.99,4.74-1.82,7.41-1.4,20.41,3.16,40.89,5.56,61.6,5.37,13.04-.12,25.68-1.93,37.43-7.99,7.62-3.93,14.36-9.17,21.23-14.25,11.87-8.79,24.54-16.04,39-19.73,8.32-2.12,16.73-2.5,25.13-.55,3.31.76,6.58,1.87,9.56,3.56,3.71,2.12,4.15,4.68,1.39,7.99Z"/>
            <path class="cls-3" d="M109.94,692.63c-11.78-3.93-20.02-8.12-23.42-9.92-14.79-7.81-25.82-16.71-33.34-23.72,0,0,.02,0,.03,0,16.42,14.94,35.76,26.4,56.73,33.63Z"/>
          </g>
        </g>
        <g>
          <path class="cls-4" d="M785.4,444.85v-5.54c0-2.57.93-4.87,2.81-6.89,1.66-1.9,3.52-2.83,5.54-2.83,3.09,0,5.96,1.39,8.59,4.18l12.33-13c-6.57-6.19-13.77-9.28-21.59-9.28-3.84.08-7.46.79-10.86,2.16-6.19,2.79-10.65,7.86-13.44,15.24-1.21,3.7-1.96,9.02-2.26,15.95h-8.59l-10.61,18.07h68.02v-18.07h-29.94Z"/>
          <path class="cls-4" d="M813.41,483.48v66c0,13.73-4.29,24.46-12.88,32.22-8.37,7.38-19.63,11.06-33.8,11.06h-214.82c-12.07,0-21.93-2.06-29.61-6.21-7.08-3.84-13.18-9.56-18.31-17.18-3.07-4.45-6.39-11.3-9.95-20.56h-26.32c-10.47,0-18.64,3.01-24.52,9.04-2.79,2.79-4.97,6.11-6.55,9.95-1.37,3.84-2.04,7.54-2.04,11.08,0,9.56,4.37,17.5,13.1,23.83,6.33,4.61,13.46,6.93,21.37,7.01,11.46,0,22.86-3.96,34.24-11.87v27.79c-12.05,7.54-24.86,11.3-38.43,11.3-11.6,0-22.34-2.79-32.2-8.35-9.26-5.44-16.43-12.43-21.47-21.02-4.83-8.51-7.24-17.79-7.24-27.79,0-11.08,2.71-21.18,8.13-30.3,5.28-8.65,12.37-15.44,21.25-20.34,8.83-4.75,19.32-7.16,31.53-7.24h18.76c-1.5-3.68-3.66-6.85-6.43-9.48-4.97-4.45-10.86-6.67-17.65-6.67s-13.83,2.06-21.57,6.21c-4,2.18-7.84,4.97-11.54,8.37l-18.52-18.54c3.54-3.68,6.69-6.63,9.48-8.81,6.33-4.45,13.3-8.06,20.9-10.86,7.7-2.63,15.22-3.94,22.62-3.94,12.35,0,23.31,3.23,32.87,9.72,6.93,4.59,12.47,10.77,16.62,18.52,1.35,2.79,2.97,6.75,4.87,11.87,3.23,8.81,6.59,17.3,10.05,25.43,3.09,7.54,7.01,13,11.74,16.39,4.97,3.68,11.38,5.54,19.22,5.54h209.4c11.91,0,17.85-5.84,17.85-17.53v-54.92l29.84-9.72Z"/>
          <path class="cls-4" d="M1080,483.48l-.34,67.13c0,12.21-3.76,22.07-11.3,29.61-8.37,8.37-19.77,12.53-34.24,12.53h-160.02c-11.3,0-19.89-3.23-25.75-9.7-5.22-5.88-7.8-13.6-7.8-23.17v-109.18l30.06-9.72v114.25c0,3.84.93,6.63,2.83,8.37,1.5,1.36,3.86,2.04,7.12,2.04h41.36v-55.49l29.84-9.72v65.21h33.78v-64.52l29.84-9.72v74.25h17.63c11.3,0,16.92-5.62,16.84-16.84v-55.61l30.18-9.72Z"/>
        </g>
      </g>
    </g>
  </g>
</svg>