<?xml version="1.0" encoding="UTF-8"?>
<svg id="Layer_2" xmlns="http://www.w3.org/2000/svg" xmlns:xlink="http://www.w3.org/1999/xlink" viewBox="0 0 1080 1080">
  <defs>
    <style>
      .cls-1 {
        fill: none;
      }

      .cls-2 {
        fill: #404041;
      }

      .cls-3 {
        clip-path: url(#clippath);
      }
    </style>
    <clipPath id="clippath">
      <rect class="cls-1" width="1080" height="1080"/>
    </clipPath>
  </defs>
  <g id="Layer_1-2" data-name="Layer_1">
    <g class="cls-3">
      <g>
        <path class="cls-2" d="M471.83,273.19l93.67,59.57c.36.23.78.32,1.2.28l110.28-12.67-27.71,107.49c-.11.41-.07.84.11,1.23l46.13,100.97-110.79,6.87c-.42.03-.82.2-1.14.48l-81.77,75.07-40.77-103.25c-.16-.39-.44-.72-.81-.93l-96.67-54.57,85.6-70.68c.33-.27.55-.64.63-1.06l22.03-108.8Z"/>
        <g>
          <path class="cls-2" d="M1074.7,732.43c-7.95,9.52-18.62,15.77-28.52,22.92-43.04,31.02-86.26,61.81-129.3,92.88-15.62,11.3-18.42,24.92-9.4,42.42,10.22,19.85,25.62,35.47,41.89,50.27,14,12.75,29.17,24.1,44.57,35.09,7.15,5.1,7.22,5.22.7,10.72-19.7,16.6-19.62,16.2-45.12,12.3-56.19-8.6-111.38-21.8-166.27-36.29-2.37-.62-5.82-.42-6.5-3.15-.8-3.37,2.9-4.25,5.02-5.75,20.9-14.97,40.42-31.47,56.69-51.54,1.1-1.35,2.72-2.5,2.45-5.5-4.45,3-11.32,7.57-19.85,12.95-51.82,32.64-141.85,89.36-266.22,105.33-.15.03-.28.03-.43.05h-.02c-87.48,11.15-155.85-2.47-178.77-7.65-17.87-4.02-34.19-8.72-48.69-13.55-62.36-21.5-119.88-55.56-168.72-100.01-66.39-60.34-116.78-139.82-141.67-232.93C-52.53,402.62,100.94,137.19,359.29,68.11c10.8-2.9,21.62-5.37,32.44-7.5C162.1,139.34,29.45,383.62,93.09,621.67c18.06,67.58,50.09,127.7,92.14,178.09,105.23,126.09,280.55,169.1,432.99,107.98.46-.18.91-.37,1.37-.55-10.4-4.45-19.82-8.55-29.27-12.52-46.04-19.25-90.81-41.09-135.12-63.94-4.67-2.4-5.6-4.15-.25-7.07,5.85-3.22,11.8-6.6,16.77-10.92,6.82-5.92,14.1-5.42,22.05-4.17,60.69,9.4,121.6,16.55,183.19,15.97,38.77-.35,76.36-5.75,111.33-23.77,22.67-11.7,42.72-27.27,63.14-42.37,35.29-26.15,72.99-47.72,115.98-58.69,24.74-6.3,49.77-7.45,74.74-1.65,9.85,2.27,19.57,5.55,28.44,10.6,11.02,6.3,12.35,13.92,4.12,23.77Z"/>
          <path class="cls-2" d="M326.94,993.93c-35.04-11.7-59.54-24.15-69.64-29.49-43.99-23.22-76.79-49.69-99.16-70.54.03,0,.05.03.08.03,48.84,44.44,106.35,78.51,168.72,100.01Z"/>
        </g>
      </g>
    </g>
  </g>
</svg>