<?xml version="1.0" encoding="UTF-8"?>
<svg id="Layer_2" xmlns="http://www.w3.org/2000/svg" xmlns:xlink="http://www.w3.org/1999/xlink" viewBox="0 0 1080 1080">
  <defs>
    <style>
      .cls-1 {
        fill: url(#linear-gradient-2);
      }

      .cls-2 {
        fill: none;
      }

      .cls-3 {
        fill: url(#linear-gradient-4);
      }

      .cls-4 {
        fill: url(#linear-gradient-3);
      }

      .cls-5 {
        fill: #404041;
      }

      .cls-6 {
        fill: url(#linear-gradient);
      }

      .cls-7 {
        clip-path: url(#clippath);
      }
    </style>
    <clipPath id="clippath">
      <rect class="cls-2" width="1080" height="1080"/>
    </clipPath>
    <linearGradient id="linear-gradient" x1="276.92" y1="676.11" x2="839.24" y2="423.47" gradientUnits="userSpaceOnUse">
      <stop offset="0" stop-color="#09663c"/>
      <stop offset=".5" stop-color="#13dc89"/>
      <stop offset="1" stop-color="#0a7244"/>
    </linearGradient>
    <linearGradient id="linear-gradient-2" x1="41.9" y1="537.22" x2="799.8" y2="67.26" gradientUnits="userSpaceOnUse">
      <stop offset="0" stop-color="#09644a"/>
      <stop offset=".5" stop-color="#2affd2"/>
      <stop offset="1" stop-color="#0a7e60"/>
    </linearGradient>
    <linearGradient id="linear-gradient-3" x1="89.83" y1="614.52" x2="847.74" y2="144.56" xlink:href="#linear-gradient-2"/>
    <linearGradient id="linear-gradient-4" x1="133.81" y1="685.44" x2="891.71" y2="215.48" xlink:href="#linear-gradient-2"/>
  </defs>
  <g id="Layer_1-2" data-name="Layer_1">
    <g class="cls-7">
      <g>
        <path class="cls-6" d="M548.93,592.17c-48.63,7.18-96.84,2.11-141.11-13.15,8.99,2.99,19.12,5.91,30.21,8.4,14.22,3.21,56.63,11.66,110.9,4.75Z"/>
        <g>
          <path class="cls-1" d="M497.71,131.88l57.9,36.82c.36.23.78.32,1.2.28l68.17-7.83-17.13,66.45c-.11.41-.07.84.11,1.23l28.51,62.41-68.49,4.24c-.42.03-.82.2-1.14.48l-50.55,46.4-25.2-63.82c-.16-.39-.44-.72-.81-.93l-59.75-33.73,52.91-43.69c.33-.27.55-.64.63-1.06l13.62-67.25Z"/>
          <g>
            <path class="cls-4" d="M871.72,416.79c-4.93,5.91-11.55,9.78-17.69,14.22-26.7,19.24-53.51,38.35-80.22,57.62-9.69,7.01-11.43,15.46-5.83,26.31,6.34,12.31,15.89,22,25.99,31.18,8.68,7.91,18.1,14.95,27.65,21.77,4.44,3.16,4.48,3.24.43,6.65-12.22,10.3-12.17,10.05-27.99,7.63-34.86-5.33-69.1-13.52-103.15-22.52-1.47-.39-3.61-.26-4.03-1.95-.5-2.09,1.8-2.64,3.12-3.57,12.96-9.29,25.07-19.52,35.17-31.97.68-.84,1.69-1.55,1.52-3.41-2.76,1.86-7.02,4.7-12.31,8.03-32.15,20.25-88,55.44-165.16,65.35-.09.02-.17.02-.26.03h-.02c-54.27,6.92-96.68-1.54-110.9-4.75-11.09-2.5-21.21-5.41-30.21-8.4-38.69-13.34-74.37-34.47-104.67-62.04-41.19-37.43-72.45-86.74-87.89-144.51C172.4,212.18,267.61,47.51,427.89,4.65c6.7-1.8,13.41-3.33,20.13-4.65-142.46,48.85-224.76,200.39-185.28,348.08,11.21,41.93,31.08,79.22,57.16,110.48,65.29,78.22,174.05,104.91,268.62,66.99.28-.11.57-.23.85-.34-6.45-2.76-12.3-5.3-18.16-7.77-28.56-11.94-56.34-25.49-83.83-39.67-2.9-1.49-3.47-2.57-.16-4.39,3.63-2,7.32-4.09,10.41-6.78,4.23-3.68,8.75-3.36,13.68-2.59,37.65,5.83,75.44,10.27,113.65,9.91,24.05-.22,47.37-3.57,69.07-14.75,14.06-7.26,26.5-16.92,39.17-26.28,21.9-16.22,45.28-29.6,71.95-36.41,15.35-3.91,30.87-4.62,46.37-1.02,6.11,1.41,12.14,3.44,17.65,6.57,6.84,3.91,7.66,8.64,2.56,14.75Z"/>
            <path class="cls-3" d="M407.82,579.02c-21.74-7.26-36.94-14.98-43.2-18.3-27.29-14.41-47.64-30.83-61.52-43.76.02,0,.03.02.05.02,30.3,27.57,65.98,48.71,104.67,62.04Z"/>
          </g>
        </g>
        <g>
          <path class="cls-5" d="M582,769.4v-5.47c0-2.54.92-4.82,2.78-6.81,1.64-1.88,3.48-2.8,5.47-2.8,3.06,0,5.89,1.38,8.49,4.14l12.19-12.85c-6.49-6.11-13.61-9.17-21.34-9.17-3.8.08-7.37.78-10.73,2.14-6.11,2.76-10.53,7.77-13.29,15.07-1.2,3.66-1.94,8.91-2.24,15.77h-8.49l-10.49,17.86h67.24v-17.86h-29.59Z"/>
          <path class="cls-5" d="M609.69,807.58v65.24c0,13.57-4.24,24.18-12.73,31.85-8.27,7.29-19.4,10.93-33.41,10.93h-212.34c-11.93,0-21.68-2.04-29.27-6.13-6.99-3.8-13.03-9.45-18.1-16.98-3.04-4.4-6.31-11.17-9.83-20.32h-26.02c-10.35,0-18.42,2.98-24.24,8.93-2.76,2.76-4.92,6.04-6.47,9.83-1.36,3.8-2.02,7.45-2.02,10.95,0,9.45,4.32,17.3,12.95,23.56,6.25,4.56,13.31,6.85,21.12,6.93,11.33,0,22.6-3.92,33.85-11.73v27.47c-11.91,7.45-24.58,11.17-37.98,11.17-11.47,0-22.08-2.76-31.83-8.25-9.15-5.37-16.24-12.29-21.22-20.78-4.78-8.41-7.15-17.58-7.15-27.47,0-10.95,2.68-20.94,8.03-29.95,5.21-8.55,12.23-15.27,21-20.1,8.73-4.7,19.1-7.07,31.17-7.15h18.54c-1.48-3.64-3.62-6.77-6.35-9.37-4.92-4.4-10.73-6.59-17.44-6.59s-13.67,2.04-21.32,6.13c-3.96,2.16-7.75,4.92-11.41,8.27l-18.3-18.32c3.5-3.64,6.61-6.55,9.37-8.71,6.25-4.4,13.15-7.97,20.66-10.73,7.61-2.6,15.05-3.9,22.36-3.9,12.21,0,23.04,3.2,32.49,9.61,6.85,4.54,12.33,10.65,16.42,18.3,1.34,2.76,2.94,6.67,4.82,11.73,3.2,8.71,6.51,17.1,9.93,25.14,3.06,7.45,6.93,12.85,11.61,16.2,4.92,3.64,11.25,5.48,19,5.48h206.99c11.77,0,17.64-5.77,17.64-17.32v-54.29l29.49-9.61Z"/>
          <path class="cls-5" d="M873.21,807.58l-.34,66.36c0,12.07-3.72,21.82-11.17,29.27-8.27,8.27-19.54,12.39-33.85,12.39h-158.17c-11.17,0-19.66-3.2-25.46-9.59-5.16-5.81-7.71-13.45-7.71-22.9v-107.92l29.71-9.61v112.93c0,3.8.92,6.55,2.8,8.27,1.48,1.34,3.82,2.02,7.03,2.02h40.88v-54.85l29.49-9.61v64.46h33.39v-63.78l29.49-9.61v73.39h17.42c11.17,0,16.72-5.56,16.64-16.64v-54.97l29.83-9.61Z"/>
        </g>
        <g>
          <path class="cls-5" d="M266.58,1045.91c0,2.12-.03,4.02-.09,5.7-.06,1.68-.18,3.02-.35,4.02-.24,1.36-.55,2.8-.93,4.33-.38,1.53-1.03,3.09-1.95,4.68-.91,1.59-2.15,3.21-3.71,4.86-1.56,1.65-3.67,3.3-6.32,4.95-2.65,1.71-5.6,3.06-8.84,4.06-3.24,1-6.46,1.5-9.64,1.5-3.54,0-7.11-.46-10.7-1.39-3.6-.93-6.9-2.53-9.9-4.79-2.65-2.06-4.73-4.78-6.24-8.17-1.5-3.39-2.25-7.23-2.25-11.52,0-1.24.1-2.83.31-4.77.21-1.94.63-3.89,1.28-5.83.23-.76.56-1.35.97-1.77.41-.35,1.09-.56,2.03-.62l3.8-.26c.35,0,.53.06.53.18s-.12.35-.35.71c-.06.12-.25.47-.57,1.06-.32.59-.66,1.4-1.02,2.43-.35,1.03-.66,2.25-.93,3.67-.27,1.41-.4,3-.4,4.77,0,3.12.54,6.05,1.63,8.79,1.09,2.74,2.66,4.96,4.73,6.67,2.06,1.71,4.56,3.02,7.51,3.93,2.94.91,5.92,1.37,8.92,1.37,2.47,0,5.09-.38,7.86-1.15,2.77-.76,5.27-1.88,7.51-3.35,1.53-1,2.96-2.07,4.28-3.22,1.32-1.15,2.58-2.52,3.75-4.1.76-1.06,1.37-2.19,1.81-3.4.44-1.21.78-2.42,1.02-3.66.23-1.23.37-2.43.4-3.57.03-1.15.04-2.19.04-3.13v-40.92c0-.65.22-1.2.67-1.68.45-.47,1.06-.71,1.84-.71h3.14l.18,40.36Z"/>
          <path class="cls-5" d="M418.91,1057.03v.18h2.58c-.94,0-1.8-.06-2.58-.18Z"/>
          <path class="cls-5" d="M449.48,1005.56v42.64c0,1.48-.32,2.78-.94,3.9-.62,1.12-1.48,2.06-2.6,2.82-1.12.78-2.42,1.34-3.9,1.72-1.46.4-3.08.58-4.86.58h-15.71c-.94,0-1.8-.06-2.58-.18-.72-.12-1.38-.28-1.98-.48-1.26-.44-2.32-.98-3.14-1.6-.82-.62-1.48-1.22-1.94-1.8-.48-.6-.8-1.04-.98-1.32-.94,1.22-1.92,2.2-2.92,2.9-1,.72-2.02,1.26-3.08,1.64-1.06.38-2.12.62-3.18.7-1.06.1-2.16.14-3.28.14h-71.53c-1.06,0-2-.08-2.82-.22-.84-.14-1.56-.36-2.22-.66-1.18-.48-2.18-1.12-3-1.94-.36.4-.74.74-1.16,1.02-.42.26-.86.5-1.32.74-1.02.48-2.1.76-3.24.88-1.16.12-2.36.18-3.6.18h-29.73c-.46,0-.9-.04-1.32-.14-.42-.08-.76-.28-1.06-.58-.42-.42-.62-1.04-.62-1.88v-3.14c0-.12.04-.2.1-.26.04-.18.2-.22.44-.1.34.24,1.02.42,2.02.54h1.96c.94-.06,1.84-.2,2.68-.4.86-.2,1.46-.9,1.82-2.08.18-.7.26-1.58.26-2.64v-40.98h5.65v40.44c0,2.18-.16,3.66-.48,4.46-.34.8-.7,1.2-1.12,1.2h20.4c.06,0,.52-.04,1.38-.1.86-.06,1.48-.22,1.9-.52.36-.3.66-.76.92-1.38.28-.6.44-1.66.5-3.12v-38.52c0-.58.16-1.14.48-1.68.34-.52,1.04-.78,2.12-.78h3.22v42.66c0,.88.44,1.66,1.34,2.38.88.7,2.02,1.06,3.44,1.06h72.85c1.66,0,3.12-.32,4.38-.94,1.26-.6,2.3-1.42,3.1-2.46.8-1.02,1.4-2.18,1.8-3.48.42-1.28.62-2.64.62-4.04,0-1.48-.22-2.9-.66-4.28-.44-1.38-1.08-2.62-1.9-3.74-.82-1.12-1.88-2-3.18-2.68-1.3-.68-2.76-1.02-4.42-1.02h-34.97c-3.36,0-5.79.46-7.29,1.38-1.5.9-2.24,2.74-2.24,5.51,0,.94.12,1.84.38,2.7.28.86.64,1.54,1.12,2.08l.16.16c.06.06.1.12.1.18-.06.06-.3.1-.7.1h-3.02c-1.7,0-2.78-.46-3.22-1.38-.44-.9-.66-2.14-.66-3.66,0-2.42.4-4.42,1.18-6.01.8-1.58,1.94-2.86,3.42-3.8,1.46-.94,3.22-1.6,5.26-1.98,2.02-.38,4.24-.58,6.65-.58h47.16c.72,0,1.22-.06,1.52-.18.1-.06.22-.12.3-.18.08-.06.16-.08.22-.08s.1.08.1.26v4.06c0,.48-.2.82-.58,1.02-.38.22-.82.32-1.28.32h-1.96c1.36,1.34,2.4,3.1,3.1,5.24.72,2.14,1.06,4.32,1.06,6.55,0,1.52-.16,2.82-.48,3.92-.32,1.08-.48,2.16-.48,3.2s.8,1.88,2.42,2.64c1.62.78,3.78,1.16,6.49,1.16h15.01c2.72,0,4.52-.48,5.39-1.42.88-.94,1.32-2.32,1.32-4.14-.06-7.05-.08-13.35-.08-18.86v-19.22c0-.58.14-1.14.44-1.68.3-.52,1-.78,2.12-.78h3.1Z"/>
          <path class="cls-5" d="M466.52,1057.22v-48.84c0-.59.13-1.21.4-1.85.27-.65.99-.97,2.16-.97h3.09v51.66h-5.65Z"/>
          <path class="cls-5" d="M540.52,1003.92c-.88-.92-1.96-1.38-3.26-1.38s-2.4.46-3.32,1.38c-.92.92-1.36,1.98-1.36,3.22,0,1.36.44,2.48,1.36,3.36.92.88,2.02,1.32,3.32,1.32s2.38-.44,3.26-1.32c.9-.88,1.34-2,1.34-3.36,0-1.24-.44-2.3-1.34-3.22ZM527.63,1003.92c-.88-.92-1.98-1.38-3.26-1.38s-2.4.46-3.28,1.38c-.88.92-1.32,1.98-1.32,3.22,0,1.36.44,2.48,1.32,3.36s1.98,1.32,3.28,1.32,2.38-.44,3.26-1.32,1.32-2,1.32-3.36c0-1.24-.44-2.3-1.32-3.22Z"/>
          <path class="cls-5" d="M643.76,1034.21c-.7-2.16-1.74-3.9-3.1-5.26h1.96c.46,0,.88-.1,1.28-.32.38-.2.56-.54.56-1.02v-4.06c0-.18-.02-.26-.08-.26s-.14.02-.22.08c-.1.06-.2.12-.32.18-.28.12-.78.18-1.5.18h-47.16c-2.42,0-4.64.2-6.65.58-2.04.38-3.8,1.04-5.26,1.98-1.48.94-2.62,2.22-3.42,3.8-.78,1.6-1.18,3.6-1.18,6.01,0,1.52.22,2.76.66,3.66.44.92,1.52,1.38,3.22,1.38h3c.42,0,.66-.04.72-.1,0-.06-.04-.12-.1-.18l-.16-.16c-.48-.54-.84-1.22-1.12-2.08-.26-.86-.4-1.76-.4-2.7,0-2.78.76-4.62,2.26-5.51,1.5-.92,3.94-1.38,7.29-1.38h34.97c1.64,0,3.12.34,4.42,1.02,1.3.68,2.36,1.56,3.18,2.68.82,1.12,1.46,2.36,1.9,3.74s.66,2.8.66,4.28c0,1.4-.2,2.76-.62,4.04-.4,1.3-1.02,2.46-1.8,3.48-.8,1.04-1.84,1.86-3.1,2.46-1.26.62-2.72.94-4.38.94h-72.15c-.64,0-1.3-.04-1.94-.14-.64-.08-1.26-.28-1.82-.58-.56-.28-1-.66-1.36-1.14-.36-.46-.54-1.12-.54-1.94v-24.12h-5.37c0,.3-.06.58-.18.82-.24.56-.7.96-1.42,1.2-.46.12-.94.2-1.4.2-1.54,0-3.78-.24-6.71-.7-2.96-.46-6.37-.86-10.25-1.16-.42-.06-.8-.1-1.14-.1h-1.16c-5.3,0-9.53,1.36-12.71,4.08-3.18,2.7-4.78,6.75-4.78,12.19,0,2.7.58,5.12,1.72,7.23,1.16,2.12,2.7,3.9,4.64,5.33,1.94,1.46,4.2,2.54,6.75,3.28,2.56.74,5.26,1.1,8.09,1.1h10.33c4.88,0,8.57-1.24,11.03-3.72,1.36,1.48,2.72,2.48,4.08,2.98,1.34.5,3.14.74,5.38.74h70.65c2.12,0,4.14-.34,6.05-1.02,1.9-.68,3.58-1.7,5.04-3.08,1.44-1.4,2.58-3.1,3.44-5.13.86-2.02,1.28-4.42,1.28-7.19,0-2.24-.36-4.44-1.06-6.57ZM543.93,1050.26c-1.34.92-3.36,1.4-6.05,1.4h-10.15c-1.78,0-3.58-.22-5.44-.66-1.86-.44-3.56-1.12-5.08-2.02-1.54-.9-2.8-2.08-3.76-3.5-.98-1.44-1.46-3.18-1.46-5.22s.38-3.76,1.14-5.13c.78-1.36,1.78-2.46,3.02-3.28,1.22-.82,2.66-1.4,4.28-1.76,1.62-.34,3.28-.52,5-.52s3.14.1,4.46.3c1.32.22,2.62.44,3.88.66,1.28.24,2.58.46,3.94.68,1.36.2,2.88.3,4.6.3s2.8-.2,3.44-.62v2.16c0,1.36.04,2.9.1,4.6,0,1.92.02,4.18.08,6.73,0,2.98-.66,4.94-1.98,5.87Z"/>
          <path class="cls-5" d="M711.76,1070.5c-.88-.9-1.98-1.36-3.26-1.36s-2.4.46-3.32,1.36c-.92.92-1.38,2.02-1.38,3.32s.46,2.38,1.38,3.28c.92.88,2.02,1.32,3.32,1.32s2.38-.44,3.26-1.32c.88-.9,1.32-1.98,1.32-3.28s-.44-2.4-1.32-3.32ZM698.87,1070.5c-.88-.9-1.98-1.36-3.28-1.36s-2.38.46-3.26,1.36c-.88.92-1.32,2.02-1.32,3.32s.44,2.38,1.32,3.28c.88.88,1.98,1.32,3.26,1.32s2.4-.44,3.28-1.32c.88-.9,1.32-1.98,1.32-3.28s-.44-2.4-1.32-3.32Z"/>
          <path class="cls-5" d="M866.94,1005.56v42.64c0,1.48-.32,2.78-.94,3.9-.62,1.12-1.48,2.06-2.6,2.82-1.12.78-2.42,1.34-3.9,1.72-1.46.4-3.08.58-4.86.58h-19.86c-1.54,0-2.82-.18-3.84-.58-1.04-.38-1.88-.8-2.52-1.28-.78-.52-1.4-1.14-1.86-1.86-.6.72-1.36,1.34-2.3,1.86-.82.48-1.88.9-3.14,1.28-1.26.4-2.76.58-4.46.58h-21.38c-1.58,0-3.14-.28-4.64-.84s-2.7-1.46-3.58-2.7c-.54.78-1.22,1.4-2.04,1.86-.82.48-1.72.86-2.7,1.16-.98.28-1.98.5-3,.62-1.04.1-2,.16-2.88.16-2.48,0-4.5-.32-6.01-.96-1.54-.66-3.02-1.8-4.44-3.46-1.36,1.78-3.04,2.94-5.04,3.5-2.02.56-4.14.86-6.37.92-.88,0-1.84-.06-2.88-.16-1.04-.12-2.04-.34-3-.62-.98-.3-1.88-.68-2.72-1.16-.82-.46-1.5-1.08-2.02-1.86-.9,1.24-2.08,2.14-3.6,2.7-1.5.56-3.04.84-4.64.84h-17.74c-1.66,0-3.02-.18-4.12-.52-1.08-.36-1.96-.78-2.6-1.24-.76-.54-1.38-1.16-1.86-1.86-.4.7-1.02,1.32-1.86,1.86-.7.46-1.68.88-2.96,1.24-1.26.34-2.84.52-4.72.52h-24.28c-1.48,0-2.7-.12-3.64-.36-.94-.22-1.68-.66-2.24-1.28-.56-.62-.96-1.42-1.2-2.42-.24-1-.36-2.3-.36-3.9v-41.24c0-.58.16-1.14.5-1.68.32-.52,1-.78,2.06-.78h3.1v41.78c0,1.88.16,3.06.48,3.56.34.5,1.02.76,2.08.76h23.5c2.6,0,4.34-.5,5.22-1.5s1.32-2.3,1.32-3.88v-19.64c0-.64.14-1.28.4-1.92.26-.66.98-.98,2.16-.98h3.1l.08,22.54c0,1.52.48,2.8,1.42,3.84.94,1.02,2.44,1.54,4.5,1.54h11.93v.08h4.96c1.12,0,2.06-.18,2.82-.52.76-.36,1.38-.8,1.82-1.34.44-.52.74-1.08.92-1.68.18-.58.26-1.12.26-1.58v-22.88h5.83v21.72c0,2.24.68,3.9,2.02,4.96,1.34,1.06,3.22,1.58,5.63,1.58h.52c1.52,0,2.76-.16,3.74-.48.96-.32,1.76-.72,2.42-1.2.98-.76,1.64-1.62,1.92-2.56.3-.94.44-1.68.44-2.2v-21.82h5.65v21.82c0,2,.66,3.58,2,4.72,1.32,1.16,3.24,1.72,5.77,1.72s4.3-.52,5.65-1.58c1.36-1.06,2.04-2.72,2.04-4.96v-18.9c0-1,.18-1.72.54-2.16.36-.44,1-.66,1.96-.66h3.32v22.88c0,.46.1,1,.28,1.58.16.6.48,1.16.92,1.68.44.54,1.04.98,1.82,1.34.76.34,1.7.52,2.82.52h2.3v-.08h18.28c2.58,0,4.34-.5,5.26-1.46.9-.98,1.36-2.34,1.36-4.1v-37.64c0-.64.14-1.3.4-1.94.26-.64,1-.96,2.16-.96h3.1v40.72c0,.52.08,1.1.22,1.72.16.62.4,1.2.76,1.76.34.56.84,1.02,1.5,1.36.64.36,1.48.54,2.48.54h20.74c2.72,0,4.52-.48,5.4-1.42.88-.94,1.32-2.32,1.32-4.14-.06-7.05-.08-13.35-.08-18.86v-19.22c0-.58.14-1.14.44-1.68.3-.52,1-.78,2.12-.78h3.1Z"/>
        </g>
      </g>
    </g>
  </g>
</svg>